<svg width="38" height="36" viewBox="0 0 38 36" fill="none" xmlns="http://www.w3.org/2000/svg">
<path d="M38 0.162032C36.3714 1.80003 33.7114 3.11403 30.4181 4.05003C27.1993 1.42382 23.163 -0.0078627 19 3.24801e-05C14.6752 3.24801e-05 10.6943 1.51203 7.5819 4.05003C4.28857 3.11403 1.62857 1.80003 0 0.162032C0.0542857 3.09603 1.5381 5.77803 4.01714 7.92003C1.98118 10.8908 0.896205 14.4046 0.904762 18C0.904762 22.7739 2.81122 27.3523 6.20473 30.7279C7.88503 32.3994 9.87984 33.7252 12.0753 34.6298C14.2707 35.5344 16.6237 36 19 36C23.7992 36 28.4018 34.1036 31.7953 30.7279C35.1888 27.3523 37.0952 22.7739 37.0952 18C37.0952 14.256 35.9552 10.8 33.9829 7.92003C36.4619 5.77803 37.9457 3.09603 38 0.162032ZM10.8571 11.7L16.2857 14.4C16.2857 15.84 15.019 17.1 13.5714 17.1C12.1238 17.1 10.8571 15.84 10.8571 14.4V11.7ZM19 27.414C15.8333 27.414 13.0467 26.1 11.4181 24.156L13.9876 21.6C14.8019 22.896 16.7381 23.814 19 23.814C21.2619 23.814 23.1981 22.896 24.0124 21.6L26.5819 24.156C24.9533 26.1 22.1667 27.414 19 27.414ZM27.1429 14.4C27.1429 15.84 25.8762 17.1 24.4286 17.1C22.981 17.1 21.7143 15.84 21.7143 14.4L27.1429 11.7V14.4Z" fill="#8498FF"/>
</svg>
