<svg width="364" height="100" viewBox="0 0 364 100" fill="none" xmlns="http://www.w3.org/2000/svg">
<path d="M363.258 54.2056C362.949 54.4436 362.76 54.2238 362.692 53.5479C362.631 52.9992 362.348 52.3597 362.073 52.1218C361.446 51.5913 362.949 50.4031 363.765 50.7873C364.108 50.9518 364.074 50.8055 363.67 50.3849C363.043 49.7636 362.949 49.7818 361.815 50.6957C360.94 51.4269 360.441 51.5913 359.84 51.336C359.403 51.1533 358.81 51.1162 358.526 51.2624C357.934 51.5913 357.024 50.9517 356.929 50.147C356.903 49.8363 357.212 49.5438 357.65 49.4884C358.062 49.4521 358.621 49.0861 358.869 48.7019C359.093 48.3177 359.531 47.9707 359.84 47.9343C360.974 47.8062 360.69 47.0197 359.213 46.3438C357.933 45.7406 357.65 45.3746 357.521 44.1864C357.435 43.3634 357.65 42.2669 358.062 41.663C358.681 40.7309 358.681 40.5475 358.062 40.0361C357.461 39.5238 357.212 39.5609 355.675 40.3831C354.765 40.8772 353.202 41.3341 352.197 41.3886C351.038 41.4432 350.411 41.6629 350.445 41.9736C350.48 42.2479 350.385 42.6322 350.222 42.833C349.784 43.3998 343.833 44.3318 343.773 43.8385C343.773 43.6013 344.519 43.2535 345.464 43.0709C347.001 42.7602 347.156 42.6139 347.001 41.7728C346.812 40.9135 346.967 40.8036 348.624 40.6028C350.479 40.383 351.037 39.7617 349.629 39.4874C349.225 39.3964 347.001 38.866 344.648 38.281C342.33 37.7142 340.26 37.3119 340.011 37.3854C339.161 37.6597 337.658 37.0747 337.564 36.4715C337.538 35.96 338.225 35.5758 339.23 35.594C339.384 35.594 339.668 35.3015 339.882 34.9355C340.26 34.3687 340.543 34.3505 341.926 34.8256C342.768 35.1181 343.678 35.5932 343.867 35.8857C344.15 36.2146 344.743 36.2517 345.619 35.9592C346.4 35.703 347.062 35.703 347.251 35.9592C347.439 36.1971 347.998 36.3426 348.53 36.2881C349.063 36.2335 350.007 36.5071 350.66 36.9277L351.819 37.6771L352.171 36.5434C352.446 35.6659 352.42 35.2635 351.982 34.843C351.51 34.386 351.544 34.0754 352.171 33.2524C353.073 32.0461 353.923 32.1188 354.043 33.3987C354.078 33.9102 354.361 34.2943 354.644 34.258C354.953 34.2216 355.142 33.9473 355.117 33.6548C355.082 33.3441 355.615 32.6674 356.276 32.137L357.496 31.1859L355.332 30.7473C354.138 30.5093 353.013 30.1986 352.858 30.0705C352.446 29.7234 354.078 28.5899 354.61 28.8452C354.833 28.9551 355.366 28.608 355.77 28.0594C356.457 27.1637 356.457 27.0175 355.804 26.487C355.392 26.14 355.143 25.5368 355.237 25.0791C355.366 24.4024 355.048 24.2016 353.58 23.9636C352.575 23.8174 351.193 23.5802 350.54 23.4331C348.659 23.0861 347.371 23.3415 347.44 24.0735C347.534 24.8783 346.281 25.0609 345.216 24.4024C343.988 23.6893 343.43 20.1422 344.426 19.667C344.838 19.4844 345.43 18.954 345.748 18.4971C346.281 17.6923 346.246 17.5832 345.405 16.9429C344.898 16.5595 343.704 16.2298 342.734 16.2116C341.171 16.1753 340.948 16.029 340.638 14.9135C340.321 13.8534 340.072 13.6708 338.886 13.689C337.564 13.7072 337.504 13.7799 337.847 14.7491L338.225 15.7729L336.061 14.9871C334.902 14.5665 333.571 13.7618 333.15 13.2139C332.566 12.5009 331.991 12.2629 331.02 12.391C330.299 12.4637 329.105 12.4091 328.384 12.2265C327.413 12.0068 326.855 12.0803 326.211 12.5554C325.533 13.0305 325.283 13.0669 325.129 12.7016C324.562 11.4763 323.437 11.0557 321.651 11.4218C320.088 11.7324 319.805 11.915 319.848 12.738C319.865 13.2684 320.088 13.689 320.303 13.6518C320.526 13.6337 320.397 13.9262 319.994 14.3104C319.581 14.6946 319.41 15.1333 319.616 15.2978C319.77 15.444 319.77 15.8282 319.581 16.1389C319.332 16.5413 318.688 16.6512 317.142 16.5231C314.163 16.2488 314.446 15.444 317.658 15.1515C317.924 15.1152 318.018 14.7673 317.855 14.3649C317.675 13.8898 317.889 13.3957 318.482 12.9752L319.367 12.3167L318.096 11.9142C316.258 11.3474 315.76 11.4755 315.872 12.4811C315.949 13.176 315.743 13.3586 314.867 13.3586C313.476 13.3404 312.454 12.1522 313.252 11.4755C314.128 10.7443 313.493 10.5798 311.939 11.1466C310.341 11.7316 300.517 11.0186 297.537 10.1047C294.987 9.29994 290.538 8.62404 284.682 8.12995C281.779 7.892 278.525 7.48962 277.408 7.23428C276.301 6.97814 275.09 6.9418 274.746 7.12441C274.369 7.34418 273.716 7.19791 273.149 6.77735C272.316 6.15598 270.169 5.91802 267.67 5.84529C267.507 5.68086 266.915 5.69906 265.566 5.88167C264.896 5.89985 264.373 5.82713 263.66 5.89986C261.058 6.15599 259.649 6.06427 258.052 5.51564C256.858 5.13144 255.545 4.94885 255.132 5.11328C254.712 5.29589 254.007 5.27771 253.595 5.11328C252.831 4.8026 248.589 4.91245 244.999 5.33301C244.012 5.4429 242.947 5.35124 242.621 5.13147C242.286 4.9117 241.41 4.78438 240.663 4.83893C239.907 4.91166 238.636 4.76545 237.855 4.52829C237.056 4.29034 235.459 4.25394 234.317 4.41838C231.921 4.78439 229.886 4.36382 229.791 3.48632C229.697 2.57246 224.682 2.71871 224.287 3.63257C223.9 4.61995 223.128 4.58361 223.256 3.57804C223.368 2.86498 223.085 2.71873 221.393 2.68237C220.26 2.66419 219.074 2.86499 218.696 3.1393C218.318 3.41362 217.726 3.52348 217.348 3.39542C215.347 2.66417 212.144 2.18905 210.143 2.31711C208.907 2.40882 206.631 2.22543 205.111 1.91475C203.591 1.60407 200.663 1.32975 198.611 1.31157C196.575 1.27521 193.269 1.12895 191.311 0.945543C189.336 0.781111 185.755 0.835656 183.291 1.09179C180.86 1.32974 178.275 1.38428 177.558 1.21985C175.896 0.835646 174.583 0.963749 174.974 1.4942C175.132 1.71318 174.991 1.91478 174.643 1.96932C174.269 2.00569 173.956 1.7685 173.926 1.42067C173.891 1.0918 173.659 0.707589 173.423 0.597705C173.17 0.469638 169.958 0.542365 166.261 0.743952C162.582 0.963721 158.477 0.963729 157.163 0.762142C155.815 0.579528 154.265 0.597716 153.685 0.817486C152.994 1.0918 152.509 1.05466 152.225 0.689429C151.946 0.305228 150.864 0.232486 148.61 0.469648C146.871 0.652262 144.566 0.671219 143.518 0.542361C142.483 0.396112 140.431 0.4143 138.941 0.597705C137.468 0.762136 135.167 0.743948 133.853 0.542361C132.505 0.341565 130.718 0.249896 129.872 0.359781C129.027 0.451483 127.223 0.377949 125.862 0.177153C123.999 -0.0971636 123.325 -0.0607927 123.136 0.341591C122.981 0.670454 122.384 0.834864 121.491 0.743952C120.723 0.689405 118.593 0.671246 116.747 0.689429C114.896 0.725794 113.187 0.634867 112.908 0.5068C112.642 0.360551 110.839 0.3969 108.88 0.579514C106.686 0.78031 105.308 0.707623 105.154 0.415124C104.995 0.0862611 104.119 0.104419 102.44 0.469648C100.937 0.798511 99.9839 0.835648 99.9366 0.579514C99.9193 0.341562 99.3869 0.213507 98.76 0.30521C95.4409 0.725775 86.2909 1.12816 84.8354 0.90839C81.2159 0.377939 79.5712 0.359775 73.603 0.798523C70.185 1.05466 66.5654 1.16452 65.5351 1.05464C64.5003 0.944753 59.2534 0.98193 53.9248 1.14636C49.631 1.27443 45.3419 1.36532 43.0705 1.40248C42.5209 1.42066 41.9585 1.42067 41.705 1.42067C38.2913 1.40248 24.5131 3.26738 22.1471 4.07136C21.0994 4.43738 17.9952 5.00415 15.2385 5.33301C12.4904 5.66188 9.60077 6.21051 8.80658 6.53937C8.46312 6.68562 8.14097 7.27066 7.81484 7.58134C7.6859 7.67305 7.56167 7.80108 7.46271 7.91017C6.30338 9.19005 5.22135 11.0913 4.25525 14.3278C3.76587 15.9919 3.16888 17.8749 2.92401 18.4962C2.67481 19.1176 2.34435 21.0378 2.16413 22.7746C1.97958 24.5114 1.53716 27.291 1.17202 28.9543C0.734297 31.0207 0.592363 33.4152 0.74694 36.4319C0.87154 38.8818 0.802558 41.3317 0.592363 41.8622C-0.300786 44.1658 -0.146209 54.0389 0.802558 54.8254C1.08607 55.0444 1.34357 55.7029 1.41219 56.2515C1.46817 56.8002 1.71268 57.5678 1.97885 57.9338C2.20639 58.318 2.67445 59.9449 3.00925 61.5718C3.83377 65.6304 4.04397 66.2162 5.86024 69.4701C7.17847 71.7919 7.61656 73.0899 8.2132 76.5643C8.35477 77.3501 8.50935 77.7707 8.66826 78.4111C8.77552 78.9597 8.89146 79.4712 9.02039 79.8735C9.49712 81.4277 9.9995 82.5796 10.6178 82.9819C10.897 83.1646 11.979 84.6642 13.662 87.1686C14.1044 87.8272 14.7354 89.1434 15.0832 90.0944C15.5769 91.5023 16.0663 92.0138 17.7666 92.8731C18.0241 93.0012 18.183 93.0558 18.4322 93.1838C18.4969 93.202 18.5525 93.2755 18.6081 93.2937C19.2737 93.5498 20.3214 94.025 20.9398 94.3357C21.0044 94.3721 21.1846 94.4274 21.2702 94.4637C22.9536 95.1586 24.3531 95.6518 25.2549 95.7435C26.0534 95.8163 27.2001 96.0907 27.7924 96.3286C29.2652 96.9318 31.7081 97.4259 34.1214 97.7366C34.1214 97.7548 34.1214 97.7547 34.1214 97.7547C34.9372 97.8646 35.7531 98.029 36.5043 98.0654C38.1017 98.1752 40.1712 98.3579 41.1116 98.5041C42.0347 98.6504 43.5549 98.6322 44.495 98.5041C45.4181 98.3579 47.6594 98.3579 49.4757 98.5041C51.262 98.6322 53.4217 98.6686 54.2546 98.5777C55.0531 98.486 56.5559 98.5958 57.5437 98.8338C58.5441 99.0717 60.6439 99.218 62.2409 99.1627C63.8253 99.0899 65.8131 99.2544 66.6937 99.5287C68.7288 100.15 74.7273 99.7666 77.2648 98.8519C80.6012 97.6456 80.6481 97.6085 80.4293 96.6219L80.2877 95.9088C80.4293 95.799 80.7128 95.7262 80.9616 95.6345L88.4842 94.8115C93.0269 94.3364 97.2391 94.0621 97.8661 94.2265C98.4757 94.391 99.5404 94.3546 100.202 94.1356C100.889 93.8977 102.082 93.9341 103.147 94.2456C104.556 94.6479 105.337 94.6115 107.188 94.0629C108.441 93.6787 110.636 93.2953 112.044 93.2218C114.487 93.0573 114.676 92.9838 115.208 91.832C115.427 91.3379 115.569 91.0454 115.676 90.79C115.771 90.7165 115.865 90.4976 115.959 90.4613C116.054 90.4249 116.445 90.5893 116.917 90.9545C117.042 91.0462 117.213 91.0462 117.355 91.1189C118.106 91.7403 118.527 91.7585 119.437 91.3933C119.781 91.3751 119.987 91.4114 120.408 91.3569C122.679 91.0826 122.915 91.1371 123.134 92.0154C123.323 92.7467 123.164 92.9846 122.494 93.0573C121.159 93.2218 121.82 94.0992 123.949 94.9767C124.323 95.123 124.576 95.0503 124.903 95.1412C125.736 95.4337 126.221 95.4882 126.534 95.3973C126.582 95.3791 126.612 95.361 126.659 95.3428C126.736 95.3064 126.895 95.3246 126.955 95.2329C126.989 95.1783 126.895 95.1231 126.942 95.0685C127.255 94.8859 127.663 94.7396 127.616 94.3554C127.582 93.972 127.174 93.6242 126.706 93.5506C125.985 93.4408 125.671 92.4898 125.955 91.8866C126.173 91.7585 126.423 91.6668 126.659 91.5941C127.616 91.5206 129.463 91.8865 130.154 92.4533C130.622 92.8557 130.841 93.4771 130.781 94.2637C130.764 94.4645 130.811 94.538 130.841 94.6842C130.811 94.7024 130.781 94.6661 130.781 94.6842C130.781 94.7024 130.841 94.7207 130.841 94.7396C130.871 95.2329 131.03 95.5072 131.627 95.5989C132.657 95.7633 133.332 95.6534 133.787 95.4344C133.864 95.489 133.881 95.5989 133.976 95.5989C134.212 95.5625 134.366 95.3428 134.349 95.1238C134.336 95.0503 134.259 95.0685 134.212 94.9958C134.212 94.9594 134.319 94.9412 134.319 94.8858C134.289 94.5016 134.1 94.319 133.946 94.4653C133.568 94.776 131.722 93.8249 131.657 93.3135C131.593 92.8194 133.456 91.7593 134.615 91.613C135.324 91.5395 135.65 91.7411 135.697 92.2898C135.822 93.4052 136.921 95.6716 137.312 95.6353C137.513 95.5989 137.672 94.7577 137.737 93.734C137.827 91.5584 138.235 90.7537 139.299 90.6256C139.896 90.5521 140.115 90.8636 140.24 92.0336C140.335 92.8565 140.493 93.5143 140.648 93.4961C141.292 93.4234 142.34 92.3261 142.292 91.7774C142.168 90.7165 143.842 90.8636 144.375 91.9419C144.598 92.3988 145.002 92.6005 145.35 92.9111C145.474 93.0028 145.444 93.0755 145.568 93.1854C145.628 93.2218 145.628 93.1854 145.663 93.2218C146.024 93.4415 146.35 93.496 146.693 93.5324C146.917 93.5688 147.213 93.8613 147.385 93.7522C147.496 93.6787 147.776 93.5878 148.012 93.4961C148.012 93.4961 148.042 93.4961 148.059 93.4961C148.669 93.1673 149.094 93.0937 149.514 93.021C149.639 93.0028 149.768 92.9483 149.875 92.9293C149.923 92.9111 149.953 92.9111 150 92.8929C150.455 92.9293 150.798 93.1854 151.005 93.6787C151.365 94.538 151.395 94.538 151.52 93.7522C151.833 91.3387 153.826 90.8264 154.809 92.8929C154.891 93.0755 154.968 93.0391 155.045 93.1854C155.063 93.2036 155.028 93.2589 155.045 93.2771C155.093 93.3316 155.157 93.2771 155.187 93.3317C155.814 94.2645 156.411 94.3736 157.506 93.2408C159.15 91.5222 160.263 91.1379 160.937 92.0154C161.25 92.436 161.984 92.9111 162.564 93.0573C163.929 93.4234 163.959 93.8984 162.74 94.7759C162.203 95.1419 161.799 95.6171 161.83 95.7816C161.86 95.8914 162.126 96.0194 162.551 96.1467C162.564 96.1649 162.517 96.2013 162.534 96.2013C162.611 96.2377 163.019 96.3112 163.409 96.3839C164.397 96.6219 165.59 96.8226 166.75 96.9325C167.188 97.0053 167.548 97.0788 167.815 97.1515C168.347 97.2432 168.721 97.4077 168.974 97.6267C169.288 97.8646 169.601 98.1018 169.915 98.6322C170.005 98.8148 170.133 98.7603 170.241 98.9066C170.649 99.4552 171.087 99.9675 171.512 99.9856C172.044 100.077 172.542 99.7295 173.015 99.1263C173.157 98.98 173.234 99.0718 173.388 98.9066C174.238 97.8275 174.689 97.6631 177.776 97.2425C179.906 96.95 181.744 96.4567 182.542 95.9626C183.761 95.195 183.916 95.1949 184.483 95.8163C184.792 96.2005 185.857 96.5294 186.784 96.5476C188.253 96.5847 188.459 96.4748 188.382 95.7618C188.253 94.5554 188.974 92.5625 189.678 92.27C190.125 92.0874 190.09 92.032 189.524 92.0684C189.146 92.0866 188.777 91.8122 188.742 91.4652C188.699 90.9537 189.292 90.7521 191.688 90.4596C193.345 90.258 195.32 90.149 196.042 90.2035C197.407 90.3316 197.888 91.3 196.892 91.8487C196.076 92.2874 195.947 93.1285 196.171 94.0242C196.196 94.0787 196.136 94.2068 196.214 94.2439C196.291 94.4819 196.248 94.719 196.402 94.957C196.806 95.5783 197.107 95.8527 197.089 95.5602C196.995 94.7372 197.982 94.7926 198.858 95.6701C199.047 95.8527 199.236 95.7246 199.46 95.8163C199.58 96.0906 199.898 96.1823 200.37 96.0543C200.645 96.0361 200.774 96.0361 200.962 95.8717C201.555 95.561 201.718 95.3776 201.4 94.9578C201.366 94.9215 201.271 95.0123 201.246 94.976C201.228 94.8115 201.46 94.7752 201.366 94.5918C201.177 94.1349 201.074 93.2573 201.134 92.6715C201.306 91.3553 203.487 90.3316 205.471 90.6059C206.166 90.7158 207.274 90.8439 207.918 90.8984C208.828 90.9893 209.06 91.1909 208.932 91.8676C208.7 93.0739 210.641 95.9997 211.611 95.8898C212.272 95.7981 212.332 95.5609 211.989 94.1166C211.646 92.7458 211.705 92.4162 212.238 92.3435C212.616 92.3072 213.355 92.6178 213.87 93.0566C214.651 93.7151 215.141 93.7696 216.506 93.4036C217.52 93.1111 219.718 93.0929 222.174 93.33C224.364 93.5316 226.717 93.6407 227.421 93.568C228.906 93.4036 229.946 92.2336 228.881 91.9411C227.781 91.6486 227.971 90.4786 229.147 90.3323C229.946 90.2414 230.289 89.8754 230.521 88.8699C230.693 88.1386 231.122 87.4983 231.483 87.4619C232.608 87.3338 233.981 87.6817 233.827 88.0469C233.543 88.7054 235.252 89.9663 236.618 90.0944C238.353 90.2406 238.748 89.0335 237.09 88.5766C234.866 87.9916 234.583 87.6809 235.304 86.6018C236.129 85.3954 236.566 85.3219 237.528 86.2358C238.404 87.0397 239.048 87.1133 239.469 86.8026C239.487 86.7844 239.512 86.8389 239.529 86.8208C239.564 86.8026 239.504 86.7663 239.512 86.7481C239.641 86.6382 239.847 86.6564 239.907 86.4192C240.036 85.7062 240.362 85.5235 241.582 85.4682C243.059 85.4318 243.102 85.4864 243.291 87.1141C243.42 88.4485 243.652 88.8327 244.321 88.9426C244.794 89.0154 245.644 89.345 246.202 89.6738C247.086 90.1861 247.241 90.5332 247.163 91.8131C247.069 93.1475 247.206 93.4218 248.348 94.0803C248.615 94.2266 248.898 94.2265 249.216 94.3182C249.619 94.519 249.937 94.6471 250.28 94.6107C251.062 94.6653 251.749 94.5372 251.938 94.1166C252.067 93.8423 252.41 93.7697 252.694 93.7143C252.719 93.7143 252.753 93.6961 252.753 93.6961C253.097 93.7143 253.346 93.8242 253.629 93.934C253.724 94.0068 253.913 93.9886 253.956 94.0985C254.119 94.4274 254.66 94.5008 255.433 94.4827C255.45 94.5008 255.476 94.4827 255.51 94.4827C255.759 94.4827 255.948 94.5009 256.292 94.4645C258.095 94.2637 258.438 94.0622 259.117 92.874C259.959 91.338 261.213 90.662 262.105 91.2652C262.312 91.4115 262.981 91.4296 263.754 91.3933C264.029 91.4478 264.372 91.5577 264.458 91.466C264.484 91.4297 264.69 91.3932 264.785 91.3379C266.193 91.2098 267.73 90.9537 268.452 90.6067C268.512 90.5885 268.477 90.4423 268.546 90.4051C268.546 90.3869 268.546 90.3869 268.546 90.3869V90.3687C269.139 89.7837 269.173 87.9553 268.452 87.6082C267.696 87.2422 267.842 86.2374 268.701 85.8342C269.139 85.6334 269.422 85.2311 269.268 84.9567C269.079 84.5733 269.894 84.3535 272.574 84.0974C276.91 83.6768 276.627 83.6404 277.048 84.646C277.331 85.2856 277.632 85.3772 278.473 85.0666C279.074 84.8468 279.727 84.3353 279.976 83.933C280.354 83.2926 280.508 83.2927 281.47 84.0429C282.045 84.4816 282.99 84.7922 283.539 84.7377C284.699 84.5914 286.279 85.9259 286.056 86.8588C285.935 87.2975 285.214 87.5718 283.617 87.7544C281.393 88.0287 281.358 88.0287 281.513 89.3268C281.702 91.0636 281.17 92.3798 280.242 92.4897C279.606 92.5632 279.538 92.9103 279.761 94.7025C280.01 96.531 280.156 96.8234 280.869 96.7317C282.114 96.5855 284.776 95.3974 285.411 94.7025C285.729 94.3736 287.404 93.7151 289.155 93.2582C289.628 93.1301 289.868 93.0202 290.22 92.9103C290.538 92.8921 290.761 92.8368 290.847 92.7095C291.809 92.3625 292.53 92.0146 292.65 91.6858C293.011 90.7719 293.861 90.6438 293.638 91.5395C293.543 91.9419 293.698 92.1791 294.033 92.1427C294.548 92.0882 294.926 90.7901 294.797 89.4367C294.737 88.7418 292.513 87.9923 291.01 88.175C290.177 88.2667 289.155 87.2793 289.069 86.2556C288.975 85.4508 297.983 85.0674 300.688 85.7433C302.852 86.292 303.9 86.1821 304.484 85.7433C304.509 85.7251 304.544 85.7251 304.578 85.7069V85.6887C304.699 85.5606 304.965 85.5606 305.017 85.3962C305.137 84.9211 305.609 84.6832 306.562 84.665C307.318 84.6287 308.048 84.4634 308.194 84.2808C308.709 83.6048 310.341 83.714 310.839 84.4634C311.423 85.3409 313.758 85.5788 313.956 84.7741C314.033 84.4816 313.879 84.061 313.664 83.8602C313.364 83.6223 313.346 83.0555 313.596 82.2697C313.956 81.0997 314.102 81.0262 316.541 80.88C317.95 80.7883 319.238 80.5328 319.392 80.3313C319.555 80.1297 319.392 80.1115 319.049 80.2949C318.379 80.6609 317.142 79.381 317.58 78.796C317.889 78.3755 317.795 78.4127 315.399 79.3992C314.257 79.8562 313.287 80.1123 313.287 79.9297C313.192 79.1803 314.24 77.9367 314.833 78.083C315.193 78.1929 315.7 78.0095 315.949 77.6988C316.258 77.2782 316.447 77.2601 316.618 77.6071C316.747 77.8633 317.202 77.936 317.623 77.7716C318.061 77.5889 318.422 77.6617 318.456 77.8996C318.482 78.1558 318.86 78.283 319.298 78.1921C320.242 78.0095 320.337 77.5154 319.538 77.2782C319.238 77.1873 319.409 77.0592 319.925 76.9675C320.68 76.8576 320.8 76.9675 320.568 77.626C320.397 78.0648 320.362 79.2712 320.474 80.2957C320.62 81.5756 320.491 82.3803 320.087 82.7819C319.486 83.3305 319.521 83.4033 320.302 83.5132C320.775 83.5867 321.118 83.4587 321.118 83.2571C321.084 83.0373 321.839 82.7637 322.81 82.6538C325.128 82.3613 325.721 81.8681 324.845 80.8989C324.347 80.3321 324.27 79.8933 324.502 79.1249C324.905 77.845 325.489 77.717 325.91 78.8506C326.159 79.5092 326.442 79.6364 327.163 79.3621C328.323 78.887 329.181 79.9653 328.64 81.1906C328.323 81.8673 328.383 82.1045 328.915 82.3788C330.015 82.9274 330.581 82.6531 330.89 81.4459C331.062 80.7329 331.423 80.3304 331.861 80.3486C332.771 80.4395 333.209 81.4278 332.368 81.5187C331.534 81.6286 331.586 81.8847 332.617 82.8167C333.149 83.2737 333.724 83.4381 334.12 83.2191C334.558 82.9812 334.789 83.0911 334.841 83.5662C334.875 83.9322 334.747 84.2793 334.515 84.2974C334.274 84.3156 334.12 84.6262 334.171 84.9923C334.274 85.8334 335.657 85.6508 338.036 84.4618C339.573 83.7124 340.139 83.6025 340.792 83.9496C341.23 84.1693 341.951 84.2057 342.363 84.0231C343.3 83.5662 343.866 84.3155 343.05 84.9187C342.2 85.5772 342.707 86.9663 343.832 87.0027C344.776 87.039 345.051 86.3441 344.244 85.9606C343.617 85.65 343.617 84.937 344.21 84.8824C344.493 84.8461 345.24 85.0287 345.841 85.2666C346.812 85.65 347.095 85.6136 347.653 85.0658C348.126 84.627 348.598 84.5171 349.061 84.7369C350.006 85.1029 351.853 84.5726 353.012 83.5852C353.45 83.1828 354.205 82.8168 354.669 82.7622C355.116 82.7077 355.485 82.4697 355.459 82.2317C355.425 81.9938 355.709 81.7748 356.052 81.7384C356.396 81.7021 356.55 81.4823 356.396 81.2634C356.241 81.0436 356.275 80.8428 356.524 80.8064C356.739 80.7882 356.988 80.2759 357.083 79.6727C357.151 79.0696 357.401 78.6672 357.615 78.7589C357.838 78.8687 357.967 78.5581 357.899 78.0822C357.804 77.0766 354.739 75.8513 352.171 75.8149C350.35 75.7604 349.131 74.6631 349.32 73.2188C349.414 72.524 349.156 72.1951 348.281 71.9026C346.872 71.4267 347.276 70.4947 348.847 70.55C349.569 70.5682 349.818 70.8243 349.818 71.5192C349.818 72.086 350.127 72.5248 350.573 72.6165C350.977 72.7082 351.887 73.1833 352.608 73.6955C353.33 74.2078 354.42 74.573 355.047 74.5003C355.648 74.4268 356.739 74.5184 357.495 74.6829C358.525 74.92 358.998 74.8655 359.281 74.4813C359.59 74.0789 359.401 73.9691 358.594 74.0789C357.744 74.1699 357.34 73.9327 356.963 73.1461C356.276 71.8298 356.524 71.2812 357.804 71.135C359.058 70.9887 359.032 69.4709 357.778 69.2701C357.212 69.1974 356.903 68.7949 356.808 68.0455C356.713 67.0399 356.55 66.9482 355.082 67.1316C353.862 67.2779 353.296 67.1135 352.918 66.5285C352.609 66.0898 351.853 65.6692 351.226 65.5956C349.131 65.3577 345.181 64.2059 345.146 63.8035C345.12 63.5837 345.215 63.511 345.37 63.6391C345.524 63.7853 345.962 63.3648 346.374 62.7434C346.838 61.9205 347.439 61.5371 348.41 61.4272C349.157 61.3363 349.878 61.043 350.007 60.7877C350.35 60.0564 349.157 59.0872 348.341 59.4161C347.938 59.5623 347.405 59.4524 347.096 59.1599C346.4 58.465 347.37 57.88 348.873 58.0808C349.569 58.1725 349.878 58.0626 349.783 57.7519C349.689 57.4958 349.818 57.167 350.101 57.0207C350.384 56.8745 350.634 56.9662 350.659 57.2216C350.659 57.4777 351.037 57.642 351.475 57.5875C352.351 57.4958 353.768 59.05 353.888 60.3117C353.957 60.7686 353.639 61.5734 353.201 62.0849C352.48 62.9806 352.48 63.0723 353.261 64.0043C353.922 64.8636 356.584 66.2344 356.868 65.8692C356.927 65.7957 356.713 64.8819 356.395 63.8217C356.112 62.7608 355.957 61.6644 356.086 61.3719C356.241 61.0612 356.086 60.3299 355.802 59.7077C355.485 59.1045 355.296 58.0627 355.39 57.4041C355.519 56.3622 355.648 56.2705 356.429 56.5993C357.056 56.8555 357.305 57.2579 357.211 57.9156C357.151 58.446 357.4 59.1955 357.743 59.5797C358.31 60.201 358.499 60.2011 359.186 59.6343C359.753 59.1592 359.838 58.7386 359.59 58.1536C358.937 56.7638 359.057 54.8262 359.813 53.8388C360.56 52.8151 360.5 52.7233 363.162 57.7148C363.505 58.3733 363.574 58.2089 363.48 56.9653C363.385 56.106 363.385 55.0459 363.505 54.6064C363.636 54.0775 363.542 53.9495 363.258 54.2056ZM353.203 78.6687C354.516 78.6687 355.117 78.9795 355.178 79.7108C355.238 80.3503 354.989 80.5518 353.924 80.6609C353.203 80.7344 352.232 80.6792 351.794 80.5511C351.013 80.3495 351.013 80.2949 351.855 79.4902C352.352 79.034 352.953 78.6687 353.203 78.6687ZM306.521 78.9249C306.546 79.1439 306.392 79.4917 306.203 79.6561C305.988 79.8206 305.799 79.7843 305.765 79.5463C305.739 79.3084 305.894 78.9795 306.091 78.7969C306.298 78.6317 306.486 78.687 306.521 78.9249ZM342.957 61.2446C342.674 61.5553 342.459 62.0675 342.485 62.3963C342.614 63.4754 341.549 63.1094 340.768 61.7932C340.579 61.4643 340.201 61.4461 339.952 61.2264C339.918 61.2082 339.952 61.0802 339.883 61.0802C339.858 61.0802 339.763 61.0619 339.729 61.0619C339.325 60.7694 339.076 60.3125 338.509 60.2208C336.938 59.9647 336.534 58.9409 337.943 58.7765C338.415 58.7219 338.698 58.2461 338.793 57.4239C338.853 56.5282 339.162 56.0705 339.884 55.8333C340.511 55.6325 340.923 55.7052 340.948 55.9977C341.017 56.2539 341.644 56.9298 342.391 57.4784C343.456 58.2461 343.739 58.6848 343.619 59.5623C343.55 60.1844 343.241 60.9339 342.957 61.2446ZM215.691 84.4097C215.562 84.5559 215.219 84.6113 214.91 84.5377C214.558 84.4279 214.652 84.318 215.124 84.2452C215.545 84.1717 215.812 84.2452 215.691 84.4097ZM337.694 40.3467C337.384 39.0305 338.003 38.9941 339.231 40.2739C340.321 41.4439 340.579 42.4313 339.763 42.5222C338.981 42.6139 337.977 41.572 337.694 40.3467ZM206.477 85.6706C206.005 85.7251 205.713 85.4327 205.635 84.903C205.541 83.8792 206.383 83.6595 206.838 84.5741C207.31 85.5062 207.293 85.5797 206.477 85.6706ZM317.47 58.831C317.582 59.0871 317.032 59.2698 316.01 59.2879C314.567 59.3061 314.319 59.1781 314.241 58.3006C314.104 57.0571 314.164 57.0208 315.229 58.0081C315.701 58.4287 316.345 58.703 316.672 58.5931C317.015 58.5022 317.358 58.612 317.47 58.831ZM154.733 84.0254C154.781 84.5187 154.544 84.9212 154.184 84.9575C153.686 85.0121 153.621 84.8477 153.904 84.1164C154.106 83.6231 154.342 83.2025 154.437 83.2025C154.544 83.1844 154.686 83.5503 154.733 84.0254ZM277.882 29.5417C277.848 29.3037 278.011 29.0847 278.208 29.0665C278.449 29.0301 278.732 29.1946 278.913 29.4144C279.042 29.6152 278.887 29.7803 278.603 29.8531C278.492 29.8349 278.449 29.7986 278.354 29.7804C278.131 29.7243 277.899 29.6879 277.882 29.5417ZM304.777 32.5584C304.777 32.4667 305.233 32.3385 305.817 32.2658C306.392 32.2105 306.77 32.3386 306.675 32.5584C306.486 32.9426 304.812 32.9426 304.777 32.5584ZM287.972 29.3037C287.371 28.6641 287.362 28.6824 287.688 29.4136C287.938 29.9622 287.912 30.1267 287.56 29.9441C287.285 29.816 287.002 29.4689 286.967 29.1764C286.95 28.9021 287.362 28.3898 287.912 28.061C288.813 27.476 288.865 27.5123 289.002 28.6823C289.149 30.1085 288.882 30.2729 287.972 29.3037ZM317.702 34.5513C317.324 35.2462 317.075 35.3371 316.594 35.0083C316.233 34.7703 315.573 34.7339 315.074 34.9173C314.129 35.3007 313.881 34.8256 314.542 33.93C314.868 33.5094 314.559 33.3631 313.219 33.3086C311.442 33.2169 310.987 32.8145 312.051 32.2295C312.97 31.7362 313.254 31.7544 313.88 32.3939C314.541 33.0335 315.478 33.0706 315.632 32.4485C315.666 32.2105 316.233 32.0824 316.86 32.1196C318.174 32.2295 318.457 33.1434 317.702 34.5513ZM321.18 59.4895C321.601 59.4342 321.867 59.5077 321.747 59.654C321.618 59.8184 321.274 59.8729 320.965 59.782C320.622 59.6903 320.708 59.5804 321.18 59.4895ZM325.911 59.3069C326.77 58.246 326.951 58.1733 327.354 58.722C327.715 59.2153 326.934 60.9528 326.289 61.0255C325.344 61.1346 325.164 60.2208 325.911 59.3069ZM326.418 55.8144C327.165 55.7227 327.294 55.8144 326.959 56.2713C326.633 56.7101 326.418 56.7282 325.972 56.3811C325.568 56.0341 325.645 55.9061 326.418 55.8144ZM324.735 33.9655C322.407 34.3497 321.197 33.9837 321.618 33.0335C321.867 32.503 322.339 32.3386 322.682 32.6311C322.811 32.7409 323.833 32.8137 324.975 32.8326C328.324 32.8508 328.23 33.3994 324.735 33.9655ZM329.467 57.1859C329.518 57.4239 329.235 57.6429 328.917 57.68C328.556 57.7164 328.281 57.5702 328.23 57.333C328.23 57.0951 328.479 56.8578 328.797 56.8207C329.158 56.7835 329.449 56.948 329.467 57.1859ZM177.795 92.0336C177.654 91.9055 177.872 91.6494 178.25 91.4304C178.809 91.1379 178.843 91.1743 178.499 91.6494C178.25 91.9782 177.936 92.1434 177.795 92.0336ZM178.156 93.3681C178.182 93.606 177.936 93.825 177.606 93.8622C177.245 93.9167 176.962 93.7522 176.932 93.515C176.902 93.2771 177.168 93.0581 177.494 93.0217C177.843 92.9664 178.156 93.1309 178.156 93.3681ZM338.449 46.1429C338.097 46.1975 337.822 46.0331 337.788 45.7959C337.754 45.558 338.002 45.339 338.354 45.3026C338.698 45.2662 338.981 45.4125 339.007 45.6496C339.042 45.8868 338.793 46.1058 338.449 46.1429ZM331.081 33.107C329.449 33.3449 328.574 33.3077 328.702 33.0152C328.917 32.503 330.514 32.3022 332.395 32.5765C333.4 32.7228 333.116 32.8327 331.081 33.107ZM335.53 21.2592C333.589 20.8022 333.151 20.418 332.927 18.9737C332.833 18.3342 332.773 17.822 332.807 17.8583C332.833 17.8765 333.288 18.0599 333.812 18.2607C334.524 18.535 334.748 18.8828 334.653 19.6323C334.516 20.6378 334.937 20.8023 336.723 20.3999C337.066 20.3264 337.504 20.5461 337.693 20.875C338.071 21.6434 337.539 21.7343 335.53 21.2592ZM331.21 17.9864C330.145 18.6259 329.424 18.7176 329.355 18.2061C329.346 17.9863 329.922 17.731 330.66 17.6575C331.768 17.5476 331.863 17.6022 331.21 17.9864ZM166.468 84.9947C166.421 84.684 166.06 84.3915 165.652 84.318C165.244 84.2635 165.48 84.1353 166.155 84.0254C166.841 83.9155 167.627 84.0073 167.911 84.2452C168.19 84.4642 169.07 84.5741 169.882 84.4832C171.2 84.3188 171.325 84.3923 171.011 85.1963C170.822 85.6903 170.449 86.2018 170.135 86.3662C169.414 86.7678 166.528 85.6896 166.468 84.9947ZM332.129 35.5386C331.588 34.8074 331.588 34.6066 332.18 34.0398C333.151 33.1077 333.477 33.1805 333.623 34.3323C333.778 35.8675 332.927 36.5806 332.129 35.5386ZM104.213 90.9C104.308 90.6438 104.587 90.4248 104.806 90.4059C105.025 90.3695 105.214 90.5521 105.231 90.79C105.261 91.009 104.995 91.247 104.634 91.2834C104.273 91.3205 104.089 91.1561 104.213 90.9ZM165.949 89.2178C168.035 88.3403 168.143 88.3584 169.349 89.5102C170.135 90.2415 170.449 90.9363 170.479 92.0699C170.509 93.6241 170.509 93.6242 168.379 94.0084C166.125 94.4107 165.558 94.0629 167.031 93.1673C168.379 92.3443 168.22 91.2107 166.752 91.0463C166.078 90.9727 165.279 90.6802 164.965 90.3877C164.557 89.9672 164.746 89.73 165.949 89.2178ZM228.006 85.9267C228.22 85.7622 228.409 85.8168 228.426 86.073C228.452 86.3109 228.298 86.5299 228.066 86.5663C227.842 86.5845 227.654 86.5299 227.628 86.42C227.628 86.3291 227.783 86.0919 228.006 85.9267ZM246.46 86.1465C246.898 86.0738 247.147 86.1465 247.019 86.3109C246.898 86.4572 246.546 86.5125 246.237 86.439C245.894 86.3291 245.988 86.2192 246.46 86.1465ZM308.118 76.8039C307.964 76.2008 309.226 75.8901 310.909 76.1454C311.811 76.2917 311.94 77.0228 311.064 77.1327C310.686 77.1691 310.497 77.4435 310.652 77.736C310.815 78.0285 310.72 78.6498 310.437 79.1439C310.137 79.7107 309.948 79.8206 309.905 79.4364C309.871 79.1257 309.493 78.5407 309.055 78.1384C308.616 77.736 308.195 77.1328 308.118 76.8039ZM340.673 41.9926C340.673 41.81 341.017 41.5175 341.42 41.3341C342.236 41.0234 343.456 41.8274 342.898 42.3215C342.459 42.6685 340.733 42.4132 340.673 41.9926ZM263.567 85.3599C263.841 84.7196 263.781 84.446 263.283 84.0982C262.905 83.842 262.596 83.4768 262.579 83.2752C262.561 83.0744 262.862 82.8546 263.266 82.8183C264.125 82.7084 265.473 83.8974 265.335 84.6105C265.258 84.8848 265.662 85.3054 266.194 85.5244C267.139 85.9086 267.147 85.9449 266.478 86.6034C264.846 88.1576 262.699 87.2248 263.567 85.3599ZM305.843 80.3503C306.083 80.3139 306.281 80.4965 306.298 80.7163C306.332 80.9535 306.177 81.1732 305.92 81.2096C305.74 81.2278 305.516 81.0633 305.482 80.8253C305.456 80.5882 305.611 80.3692 305.843 80.3503ZM318.578 73.2022C318.208 73.2386 318.019 73.4394 318.14 73.6046C318.303 73.7873 317.856 74.007 317.187 74.0987C316.517 74.1723 315.95 74.0805 315.95 73.8797C315.916 73.6789 316.328 73.4773 316.826 73.4046C317.358 73.3501 317.951 73.0575 318.174 72.7832C318.457 72.399 318.663 72.3809 318.895 72.6916C319.084 72.9271 318.93 73.1651 318.578 73.2022ZM353.297 43.5279C353.486 43.4915 353.795 43.6559 353.958 43.8756C354.113 44.0954 353.958 44.2963 353.64 44.3508C353.262 44.3872 352.979 44.2227 352.919 43.9856C352.919 43.7658 353.074 43.546 353.297 43.5279ZM343.112 32.3757C343.112 30.895 343.43 30.6026 344.057 31.5346C344.331 31.9552 344.46 32.4666 344.331 32.6318C344.177 32.8144 344.366 33.1078 344.709 33.2722C345.654 33.7473 345.027 34.2596 344.022 33.8391C343.43 33.5821 343.112 33.107 343.112 32.3757ZM320.647 14.4764C321.197 14.4218 321.351 14.2021 321.154 13.7815C320.965 13.4344 321.059 13.142 321.326 13.1048C321.592 13.0685 321.712 13.2511 321.592 13.5072C321.48 13.7633 321.592 13.9459 321.807 13.9095C322.056 13.8914 322.227 13.6724 322.202 13.4345C322.185 13.1973 322.339 12.9775 322.562 12.9594C323.438 12.8495 322.983 13.7088 321.747 14.5135C320.209 15.5191 319.926 15.5918 319.883 15.0076C319.866 14.7689 320.209 14.5309 320.647 14.4764ZM315.856 18.3887C316.483 18.9192 316.233 20.0157 315.452 20.1074C315.006 20.1619 314.636 20.0529 314.602 19.8513C314.542 19.2845 315.512 18.1326 315.856 18.3887ZM182.982 94.3008C182.475 93.734 182.449 93.4961 182.81 93.1673C183.325 92.7285 184.235 92.6004 185.077 92.8384C185.437 92.9483 185.3 93.3317 184.639 94.0084C183.669 95.0139 183.609 95.0139 182.982 94.3008ZM217.941 91.2841C212.351 91.8509 212.239 91.851 210.925 90.9735L209.611 90.1141L210.694 89.5292C211.286 89.2003 211.647 88.7615 211.475 88.5418C211.304 88.322 211.243 88.1575 211.304 88.1757C211.363 88.1939 211.802 88.2675 212.274 88.322C212.746 88.3955 213.244 88.5963 213.39 88.779C213.528 88.9798 214.343 88.8335 215.185 88.4865C216.438 87.956 217.005 87.9379 218.371 88.4319C219.273 88.7608 220.046 89.2367 220.08 89.4739C220.183 90.4976 219.453 91.1379 217.941 91.2841ZM319.771 74.5912C319.54 74.4631 319.282 74.2078 319.273 74.0062C319.205 73.4394 320.364 72.9824 320.682 73.4393C321.12 73.988 320.398 74.9026 319.771 74.5912ZM347.629 78.4672C347.311 78.1012 347.122 78.0838 346.968 78.4309C346.65 79.1439 344.778 79.2901 342.64 78.7779C341.644 78.5407 340.321 78.4127 339.763 78.4854C339.136 78.5589 338.286 78.2111 337.754 77.6443C336.878 76.7668 336.629 76.7304 335.203 77.2782C334.181 77.6443 333.528 77.7352 333.4 77.4791C333.322 77.2593 332.979 77.113 332.653 77.1502C332.335 77.1866 331.708 76.8759 331.27 76.4553C330.454 75.6687 328.574 75.5778 328.668 76.3272C328.668 76.5652 328.548 76.7841 328.324 76.8023C328.118 76.8205 327.964 76.5098 327.981 76.0893C327.998 75.4497 328.479 75.2663 331.021 74.901C334.353 74.4251 336.474 74.7548 337.47 75.8884C337.916 76.3999 338.191 76.4734 338.354 76.1074C338.698 75.3398 339.789 75.3398 340.484 76.1074C340.948 76.656 341.669 76.7288 343.773 76.4363C345.242 76.2355 346.375 76.2355 346.307 76.3999C346.212 76.5825 346.556 77.0395 347.062 77.4055C347.535 77.7708 347.973 78.283 347.999 78.5391C347.999 78.7961 347.844 78.7597 347.629 78.4672ZM348.565 76.6577C349.948 76.5296 350.352 77.06 349.321 77.6268C348.969 77.8094 348.376 77.7004 347.973 77.3707C347.311 76.8221 347.372 76.7667 348.565 76.6577ZM354.645 55.412C353.426 55.7408 352.764 55.1748 352.979 53.9859C353.168 52.9439 353.331 52.9068 354.74 53.419C355.959 53.8578 355.925 55.0649 354.645 55.412Z" fill="#212121"/>
</svg>
